<?xml version="1.0" encoding="utf-8"?>
<!-- Generator: Adobe Illustrator 22.0.1, SVG Export Plug-In . SVG Version: 6.00 Build 0)  -->
<svg version="1.1" id="Layer_1" xmlns="http://www.w3.org/2000/svg" xmlns:xlink="http://www.w3.org/1999/xlink" x="0px" y="0px"
	 viewBox="0 0 5442.5 2026.8" style="enable-background:new 0 0 5442.5 2026.8;" xml:space="preserve">
<style type="text/css">
	.st0{fill:#747274;}
	.st1{fill:#FFCD00;}
	.st2{clip-path:url(#SVGID_6_);fill:#747274;}
	.st3{clip-path:url(#SVGID_8_);fill:#757273;}
	.st4{clip-path:url(#SVGID_10_);fill:#757273;}
	.st5{clip-path:url(#SVGID_12_);fill:#757273;}
	.st6{clip-path:url(#SVGID_14_);fill:#757273;}
	.st7{clip-path:url(#SVGID_16_);fill:#757273;}
</style>
<g>
	<g>
		<polygon class="st0" points="145.3,1702.3 2,2018.3 4933,2018.3 5076.3,1703.8 		"/>
		<g>
			<defs>
				<polygon id="SVGID_1_" points="2074.8,1651.7 3204.8,1651.7 3957.4,446.2 5161,446.2 5179.8,414.2 2848.8,414.2 				"/>
			</defs>
			<use xlink:href="#SVGID_1_"  style="overflow:visible;fill:#747274;"/>
			<clipPath id="SVGID_2_">
				<use xlink:href="#SVGID_1_"  style="overflow:visible;"/>
			</clipPath>
		</g>
		<g>
			<defs>
				<path id="SVGID_3_" d="M2397.3,2.9c0,0-291.8,2.7-575.3,203.8c-283.5,201.3-297.7,271.2-387,399.9
					C1345.5,735.6,1334.3,771,1317.4,795c-17.1,24.1-11.3,45.4-128.9,55.5c-117.8,9.9-343,32.8-455,63.7
					c-112.2,31.3-255.2,94.9-289.2,157.4c-33.9,62.3-229.7,506-229.7,506s-44,76.7,31.2,75.1c75-1.1,1760.4,0,1760.4,0L3041.4,2.9
					H2397.3z"/>
			</defs>
			<use xlink:href="#SVGID_3_"  style="overflow:visible;fill:#747274;"/>
			<clipPath id="SVGID_4_">
				<use xlink:href="#SVGID_3_"  style="overflow:visible;"/>
			</clipPath>
		</g>
		<path class="st1" d="M288.9,1928.3c-7.6,0-13.4-0.9-18.5-2.2c-4.7-1.4-8.8-3.4-11.9-6.1c-3.3-2.7-5.3-6.3-6.7-10.3
			c-1.5-3.9-2.2-8.5-2.2-13.8v-54.2c0-5.2,0.7-9.4,2.2-13.7c1.4-4,3.4-7.2,6.7-9.9c3.1-2.9,7.2-4.9,11.9-6.5c5.1-1.3,11-2,18.5-2
			h106.3v23.6H288.5c-5.1,0-9,0.9-11.5,2.3c-2.4,1.5-3.5,4.1-3.5,7.4v52.2c0,3.1,1.1,5.8,3.5,7.4c2.5,1.3,6.4,2.4,11.5,2.4h83.8
			v-34.6h-78.8v-21.8h90.2c3.3,0,6.1,1.3,8.1,3.6c2.6,2,3.7,5.2,3.7,8.3v67.9H288.9z"/>
		<path class="st1" d="M395.6,1929.2H288.9c-7.6,0-13.9-0.7-18.9-2.2c-4.9-1.4-9.2-3.8-12.2-6.5c-3.1-2.9-5.6-6.3-6.9-10.3
			c-1.4-4-2.3-9-2.3-14.4v-54.2c0-5.2,0.8-9.9,2.3-13.7c1.4-4.5,3.9-7.9,6.9-11c3.1-2.5,7.3-4.7,12.2-6.3c5-1.2,11.3-2,18.9-2h106.3
			c0.8,0,1.1,0.4,1.1,0.9v23.6c0,0.4-0.3,0.9-1.1,0.9H288.5c-5.1,0-8.6,0.9-10.8,2.4c-2,1.5-3.2,3.6-3.2,6.5v52.2
			c0,2.9,1.3,4.9,3.2,6.3c2.2,1.4,5.7,2.1,10.8,2.1h82.8v-32.4h-77.8c0,0-0.9-0.5-0.9-0.9v-21.8c0-0.5,0.4-0.9,0.4-0.9h90.8
			c3.5,0,6.7,1.3,9,3.4c2.5,2.7,3.9,5.8,3.9,9.4v67.3c0,0.7-0.5,1.4-0.5,1.4"/>
		<path class="st1" d="M431,1928.3v-118.7h106.7c7.2,0,13.3,0.7,18.4,2c5.1,1.6,8.9,3.6,12.1,6.5c3.2,2.7,5.2,5.9,6.7,9.9
			c1.1,4.3,1.9,8.5,1.9,13.7v12.1c0,5-0.8,9.7-1.9,13.7c-1.4,4.1-3.5,7.6-6.7,9.9c-3.1,2.9-6.9,5-12.1,6.7c-5,1.2-11.2,1.8-18.4,1.8
			h-17.9l60.6,42.5h-41.8l-55.9-42.5h-28.5v42.5H431z M454.2,1865.1h83.9c5.1,0,9.1-0.9,11.4-2.5c2.2-1.4,3.6-4.1,3.6-7.6v-12.4
			c0-2.9-1.4-5.6-3.6-7c-2.3-1.5-6.4-2.3-11.4-2.3h-83.9V1865.1z"/>
		<path class="st1" d="M580.4,1929.2h-41.8c-0.2,0-0.2,0-0.5-0.3l-55.7-41.8h-27v41.2c0,0.2-0.5,0.9-0.5,0.9H431c-0.7,0-1-0.7-1-0.9
			v-118.7c0-0.5,0.3-0.9,1-0.9h106.7c7.2,0,13.5,0.7,18.6,2c5.1,1.6,9.4,3.8,12.5,6.3c3.2,3.1,5.6,6.5,7.1,11
			c1.2,3.8,2.1,8.5,2.1,13.7v12.1c0,5-0.8,10.1-2.1,13.8c-1.5,4.5-4,7.9-7.1,11c-3.1,2.5-7.4,4.9-12.5,6.1c-5,1.4-11.4,2.3-18.6,2.3
			H523l57.9,40c0.6,0.7,0.6,0.7,0.6,1.5c-0.2,0.4-0.6,0.7-0.6,0.7 M455.4,1863.8h82.6c4.8,0,8.4-0.5,10.6-2.3c2.3-1.1,3-3.8,3-6.5
			V1843c0-2.9-0.7-5-3-6.5c-2.3-1.5-5.9-2.4-10.6-2.4h-82.6V1863.8z"/>
		<path class="st1" d="M647.3,1928.3c-7.6,0-13.4-0.9-18.7-2.2c-4.7-1.4-8.8-3.4-11.9-6.1c-3-2.7-5.2-6.3-6.7-10.3
			c-1.4-3.9-2.1-8.5-2.1-13.8v-86.3h23.9v85.5c0,3.1,1.3,5.8,3.6,7.4c2.3,1.3,6.2,2.4,11.3,2.4h67.5c4.9,0,9-1.1,11.3-2.4
			c2.5-1.6,3.7-4.3,3.7-7.4v-85.5h23.9v86.3c0,5.4-0.6,9.9-1.9,13.8c-1.4,4-3.9,7.6-6.7,10.3c-3.4,2.7-7.2,4.7-12.3,6.1
			c-4.8,1.3-10.8,2.2-18,2.2H647.3z"/>
		<path class="st1" d="M714.2,1929.2h-66.9c-7.6,0-13.6-0.7-18.7-2.2c-5.1-1.4-9.2-3.8-12.5-6.5c-3.1-2.9-5.2-6.3-6.8-10.3
			c-1.5-4-2.3-9-2.3-14.4v-86.3c0-0.5,0.7-0.9,0.7-0.9h24.3c0.6,0,1.3,0.4,1.3,0.9v85.5c0,2.9,1,4.9,3,6.3c2.3,1.4,5.8,2.1,10.7,2.1
			h67.5c4.9,0,8.6-0.7,10.6-2.1c2.4-1.5,3.3-3.4,3.3-6.3v-85.5c0-0.5,0.6-0.9,0.6-0.9h24.2c0.7,0,1.2,0.4,1.2,0.9v86.3
			c0,5.4-0.7,10.4-2.2,14.4c-1.3,4-3.8,7.4-6.9,10.3c-3.1,2.7-7.4,5-12.6,6.5C727.6,1928.5,721.4,1929.2,714.2,1929.2"/>
		<path class="st1" d="M790,1927.8v-118.1h107c7.2,0,13,0.7,18,2c5.1,1.6,9.2,3.6,12.2,6.5c3.1,2.7,5.4,5.9,6.7,9.9
			c1.4,4.3,2,8.5,2,13.7v15.7c0,5.2-0.5,9.7-2,13.9c-1.3,4-3.6,7.4-6.7,9.9c-3.1,2.9-7.1,5-12.2,6.1c-5,1.6-10.8,2.3-18,2.3H813
			v38.2H790z M813,1867.6h83.9c5.4,0,9.2-0.5,11.5-2.2c2.4-1.6,3.4-4.3,3.4-7.7V1843c0-3.3-1-5.9-3.4-7.4c-2.4-1.5-6.1-2.3-11.5-2.3
			H813V1867.6z"/>
		<path class="st1" d="M813,1929.2h-23c-0.6,0-1.1-0.7-1.1-0.9v-118.7c0-0.5,0.4-0.9,1.1-0.9h106.9c7.3,0,13.4,0.7,18.6,2
			c5,1.6,9.2,3.8,12.4,6.3c3.1,3.1,5.3,6.5,6.9,11c1.5,3.8,2,8.5,2,13.7v15.7c0,5.2-0.4,10.1-2,14.2c-1.6,4.2-3.8,7.6-6.9,10.3
			c-3.2,3.3-7.4,5.2-12.4,6.7c-5.2,1.3-11.3,1.8-18.6,1.8h-82.7v38C814.2,1928.5,813.8,1929.2,813,1929.2 M814.2,1866.7h82.7
			c5.1,0,8.6-0.7,11-2.2c2-1.5,3.2-3.4,3.2-6.9v-15.1c0-2.5-1.3-4.7-3.2-6.1c-2.3-1.5-5.9-2.4-11-2.4h-82.7V1866.7z"/>
		<path class="st1" d="M1005,1928.3c-7.4,0-13.5-0.9-18.4-2.2c-5-1.4-9.1-3.4-11.9-6.1c-3.3-2.7-5.6-6.3-6.8-10.3
			c-1.5-4.1-2.2-8.5-2.2-13.8v-54.2c0-5.2,0.7-9.4,2.2-13.7c1.2-4,3.4-7.2,6.8-9.9c2.8-2.9,6.8-4.9,11.9-6.5c4.9-1.3,11-2,18.4-2
			h67.5c7.3,0,13.3,0.7,18.5,2c5,1.6,8.8,3.6,12.1,6.5c3.1,2.7,5,5.9,6.5,9.9c1.4,4.3,2.2,8.5,2.2,13.7v54.2c0,5.4-0.7,9.7-2.2,13.8
			c-1.4,4-3.4,7.6-6.5,10.3c-3.3,2.7-7.1,4.7-12.1,6.1c-5.1,1.3-11.2,2.2-18.5,2.2H1005z M989.7,1895.2c0,3.1,1.4,5.8,3.9,7.4
			c2.2,1.3,6,2.4,11.2,2.4h68.2c5,0,9.2-1.1,11.4-2.4c2.5-1.6,3.6-4.3,3.6-7.4v-52.6c0-2.9-1.1-5.6-3.6-7c-2.3-1.5-6.4-2.3-11.4-2.3
			h-68.2c-5.1,0-9,0.9-11.2,2.3c-2.5,1.5-3.9,4.1-3.9,7V1895.2z"/>
		<path class="st1" d="M1072.5,1929.2H1005c-7.4,0-13.8-0.7-18.6-2.2c-5-1.4-9.4-3.8-12.5-6.5c-3.1-2.9-5.4-6.3-6.9-10.3
			c-1.3-4-1.9-9-1.9-14.4v-54.2c0-5.2,0.6-9.9,1.9-13.7c1.5-4.5,3.8-7.9,6.9-11c3.2-2.5,7.6-4.7,12.5-6.3c4.9-1.2,11.3-2,18.6-2
			h67.5c7.3,0,13.6,0.7,18.5,2c5.3,1.6,9.7,3.8,12.8,6.3c3.1,3.1,5.3,6.5,6.8,11c1.3,3.8,2.1,8.5,2.1,13.7v54.2
			c0,5.4-0.7,10.4-2.1,14.4c-1.5,4-3.8,7.4-6.8,10.3c-3.1,2.7-7.5,5-12.8,6.5C1086.1,1928.5,1079.9,1929.2,1072.5,1929.2
			 M1004.7,1834.1c-4.8,0-8.4,0.9-10.9,2.4c-2.1,1.5-3.1,3.6-3.1,6.5v52.2c0,2.9,1,4.9,3.1,6.3c2.5,1.4,6.1,2.1,10.9,2.1h68.2
			c4.9,0,8.6-0.7,10.8-2.1c2.2-1.5,3.1-3.4,3.1-6.3V1843c0-2.9-1-5-3.1-6.5c-2.2-1.5-5.9-2.4-10.8-2.4H1004.7z"/>
		<path class="st1" d="M1222.3,1928.3v-23.4h102.6c5.3,0,9.1-1.1,11.6-2.4c2.2-1.6,3.6-4.3,3.6-7.4v-12.2c0-3.8-1.4-5.9-3.6-7.7
			c-2.5-1.3-6.3-2.4-11.6-2.4h-68c-23.1,0-34.6-8.5-34.6-25.2v-15.1c0-15.1,11.4-22.9,34-22.9h102.7v23.6h-103.4c-3.6,0-6,0-7.4,0.9
			c-1.3,0.6-1.8,1.8-1.8,3.3v6.8c0,2.2,0.5,3.4,1.8,4c1.4,1.1,3.8,1.6,7.5,1.6h69c7,0,13.2,0.7,18.2,2c5.1,1.3,8.9,3.6,12.1,5.9
			c3.2,2.9,5.2,6.1,6.8,9.9c1.2,4.5,2,9,2,14.1v14.2c0,5.4-0.8,9.9-2,13.8c-1.6,4-3.6,7.6-6.8,10.3c-3.1,2.7-6.9,4.7-12.1,6.1
			c-5,1.3-11.2,2.2-18.2,2.2H1222.3z"/>
		<path class="st1" d="M1324.8,1929.2h-102.5c0,0-1-0.7-1-0.9v-23.4c0-0.6,0.5-1.3,0.5-1.3h103.1c5.1,0,8.7-0.7,10.7-2.1
			c2.2-1.5,3.3-3.4,3.3-6.3v-12.2c0-2.9-1.2-5.2-3.3-6.7c-2.1-1.6-5.6-2.2-10.7-2.2h-68.3c-23.5,0-35.3-9-35.3-26.5v-15.1
			c0-15.8,11.6-23.8,35-23.8h102.7c0,0,1,0.4,1,0.9v23.6c0,0.4-0.5,0.9-0.5,0.9h-103.9c-4.2,0-6,0.6-6.8,0.9
			c-0.9,0.5-1.3,1.3-1.3,2.4v6.8c0,1.6,0.4,2.9,1.4,3.4c0.6,0.4,2.4,0.9,6.8,0.9h69c7,0,13.5,0.7,18.5,2.3c5,1.3,9.4,3.3,12.7,6.5
			c2.8,2.7,5.3,6.1,6.8,10.3c1.2,4.2,2,9,2,14.1v14.2c0,5.4-0.8,10.4-2,14.4c-1.5,4-4.1,7.4-6.8,10.3c-3.3,2.7-7.7,5-12.7,6.5
			C1338.3,1928.5,1331.8,1929.2,1324.8,1929.2"/>
		<polygon class="st1" points="1400.2,1928.3 1400.2,1809.6 1545.6,1809.6 1545.6,1833.2 1423.3,1833.2 1423.3,1848.5 
			1523.5,1848.5 1523.5,1870.3 1423.3,1870.3 1423.3,1904.9 1545.9,1904.9 1545.9,1928.3 		"/>
		<path class="st1" d="M1545.9,1929.2h-145.7c-0.7,0-1.5-0.7-1.5-0.9v-118.7c0-0.5,0.7-0.9,1.5-0.9h145.4c0.5,0,0.8,0.4,0.8,0.9
			v23.6c0,0.4-0.3,0.9-0.8,0.9h-121.3v13.5h99.1c0.5,0,0.8,0.4,0.8,0.9v21.8c0,0.4-0.3,0.9-0.8,0.9h-99.1v32.4h121.5
			c0,0,1.2,0.7,1.2,1.3v23.4c0,0.2-0.6,0.9-0.6,0.9"/>
		<path class="st1" d="M1579.4,1928.3v-118.7h107c7.2,0,13.3,0.7,18.4,2c5,1.6,9,3.6,12,6.5c3.2,2.7,5.5,5.9,6.8,9.9
			c1.4,4.3,2.1,8.5,2.1,13.7v12.1c0,5-0.6,9.7-2.1,13.7c-1.3,4.1-3.5,7.6-6.8,9.9c-3,2.9-7,5-12,6.7c-5.1,1.2-11.2,1.8-18.4,1.8h-18
			l60.8,42.5h-41.9l-55.9-42.5h-28.4v42.5H1579.4z M1602.8,1865.1h83.6c5.1,0,9.2-0.9,11.6-2.5c2.3-1.4,3.6-4.1,3.6-7.6v-12.4
			c0-2.9-1.3-5.6-3.6-7c-2.4-1.5-6.5-2.3-11.6-2.3h-83.6V1865.1z"/>
		<path class="st1" d="M1729.1,1929.2h-41.9c0,0-0.3,0-0.5-0.3l-55.8-41.8h-27v41.2c0,0.2-0.5,0.9-1.1,0.9h-23.4c0,0-1-0.7-1-0.9
			v-118.7c0-0.5,0.5-0.9,0.5-0.9h107.5c7.2,0,13.5,0.7,18.6,2c5.1,1.6,9.3,3.8,12.5,6.3c3.2,3.1,5.6,6.5,6.8,11
			c1.6,3.8,2.4,8.5,2.4,13.7v12.1c0,5-0.8,10.1-2.4,13.8c-1.2,4.5-3.5,7.9-6.8,11c-3.2,2.5-7.4,4.9-12.5,6.1
			c-5.1,1.4-11.4,2.3-18.6,2.3h-14.7l58,40c0.4,0.7,0.4,0.7,0.4,1.5C1729.8,1928.8,1729.4,1929.2,1729.1,1929.2 M1603.9,1863.8h82.6
			c5.1,0,8.9-0.5,10.9-2.3c2.3-1.1,3.1-3.8,3.1-6.5V1843c0-2.9-0.7-5-3.1-6.5c-2-1.5-5.8-2.4-10.9-2.4h-82.6V1863.8z"/>
		<path class="st1" d="M1839.4,1923.3c-1.5,2.3-3.2,3.8-5.3,5c-2.3,1.1-4.7,1.8-6.6,1.8c-2.3,0-4.3-0.7-6.4-1.8
			c-2.3-1.3-4.1-2.7-5.7-5l-72.6-113.6h28l56.7,90.4l56.7-90.4h27.9L1839.4,1923.3z"/>
		<path class="st1" d="M1827.5,1931c-2.3,0-4.6-0.5-6.8-1.8c-2.6-1.4-4.7-3-6.1-5.4l-72.8-113.4c-0.2-0.4-0.2-0.7,0-1.3
			c0.3-0.2,0.7-0.4,0.7-0.4h28.3c0.4,0,0.7,0.2,0.9,0.4l55.8,89.1l55.8-89.1c0.4-0.2,0.5-0.4,0.9-0.4h27.9c0,0,0.9,0.2,1.1,0.4
			c0.2,0.5,0.2,0.9,0,1.3l-72.8,113.4c-1.7,2.3-3.5,3.9-6.2,5.4C1832.1,1930.5,1829.8,1931,1827.5,1931"/>
		<rect x="1940.1" y="1809.6" class="st1" width="23" height="118.7"/>
		<path class="st1" d="M1963.2,1929.2h-23c0,0-1.2-0.7-1.2-0.9v-118.7c0-0.5,0.6-0.9,0.6-0.9h23.7c0.7,0,1.1,0.4,1.1,0.9v118.7
			C1964.3,1928.5,1963.9,1929.2,1963.2,1929.2"/>
		<path class="st1" d="M2040,1928.3c-7.2,0-13.3-0.9-18-2.2c-5.2-1.4-9.2-3.4-12.1-6.1c-3.2-2.7-5.5-6.3-6.8-10.3
			c-1.3-3.9-2-8.5-2-13.8v-54.2c0-5.2,0.7-9.4,2-13.7c1.3-4,3.6-7.2,6.8-9.9c2.9-2.9,6.8-4.9,12.1-6.5c4.7-1.3,10.8-2,18-2h106.8
			v23.6H2040c-5.4,0-9,0.9-11.4,2.3c-2.2,1.5-3.6,4.1-3.6,7.4v52.2c0,3.1,1.4,5.8,3.6,7.4c2.4,1.3,6,2.4,11.4,2.4h106.9v23.4H2040z"
			/>
		<path class="st1" d="M2146.9,1929.2H2040c-7.2,0-13.4-0.7-18.6-2.2c-5-1.4-9.2-3.8-12.3-6.5c-3.2-2.9-5.6-6.3-7-10.3
			c-1.3-4-2-9-2-14.4v-54.2c0-5.2,0.7-9.9,2-13.7c1.5-4.5,3.8-7.9,7-11c3.1-2.5,7.3-4.7,12.3-6.3c5.1-1.2,11.3-2,18.6-2h106.8
			c0.4,0,0.7,0.4,0.7,0.9v23.6c0,0.4-0.4,0.9-0.7,0.9H2040c-4.9,0-8.7,0.9-11,2.4c-2,1.5-3.1,3.6-3.1,6.5v52.2
			c0,2.9,1.1,4.9,3.1,6.3c2.3,1.4,6.1,2.1,11,2.1h106.9c0.5,0,1.1,0.7,1.1,1.3v22.8C2148,1928.5,2147.5,1929.2,2146.9,1929.2"/>
		<rect x="2181.6" y="1809.6" class="st1" width="23.3" height="118.7"/>
		<path class="st1" d="M2204.9,1929.2h-23.3c0,0-0.9-0.7-0.9-0.9v-118.7c0-0.5,0.3-0.9,0.3-0.9h24c0,0,1,0.4,1,0.9v118.7
			c0,0.2-0.4,0.9-0.4,0.9"/>
		<path class="st1" d="M2281.8,1928.3c-7.2,0-13.3-0.9-18.4-2.2c-4.9-1.4-8.9-3.4-12.1-6.1c-3-2.7-5.1-6.3-6.5-10.3
			c-1.5-4.1-2.3-8.5-2.3-13.8v-54.2c0-5.2,0.7-9.4,2.3-13.7c1.3-4,3.5-7.2,6.5-9.9c3.2-2.9,7.2-4.9,12.1-6.5c5-1.3,11.2-2,18.4-2
			h67.8c6.9,0,13.1,0.7,18.2,2c4.9,1.6,8.9,3.6,12.2,6.5c2.9,2.7,5.2,5.9,6.6,9.9c1.3,4.3,2.3,8.5,2.3,13.7v54.2
			c0,5.4-0.9,9.7-2.3,13.8c-1.3,4-3.7,7.6-6.6,10.3c-3.2,2.7-7.2,4.7-12.2,6.1c-5,1.3-11.2,2.2-18.2,2.2H2281.8z M2266.4,1895.2
			c0,3.1,1.3,5.8,3.8,7.4c2.4,1.3,6.1,2.4,11.5,2.4h67.9c5.2,0,9-1.1,11.2-2.4c2.6-1.6,3.9-4.3,3.9-7.4v-52.6c0-2.9-1.3-5.6-3.9-7
			c-2.2-1.5-6-2.3-11.2-2.3h-67.9c-5.4,0-9.2,0.9-11.5,2.3c-2.6,1.5-3.8,4.1-3.8,7V1895.2z"/>
		<path class="st1" d="M2349.6,1929.2h-67.8c-7.4,0-13.7-0.7-18.6-2.2c-5.1-1.4-9.5-3.8-12.5-6.5c-3.1-2.9-5.4-6.3-6.8-10.3
			c-1.5-4-2-9-2-14.4v-54.2c0-5.2,0.5-9.9,2-13.7c1.4-4.5,3.8-7.9,6.8-11c3.1-2.5,7.4-4.7,12.5-6.3c5-1.2,11.2-2,18.6-2h67.8
			c7.2,0,13.5,0.7,18.5,2c4.9,1.6,9.4,3.8,12.3,6.3c3.4,3.1,5.6,6.5,7.2,11c1.3,3.8,2,8.5,2,13.7v54.2c0,5.4-0.7,10.4-2,14.4
			c-1.6,4-3.8,7.4-7.2,10.3c-3,2.7-7.4,5-12.3,6.5C2363.1,1928.5,2356.8,1929.2,2349.6,1929.2 M2281.8,1834.1c-5.2,0-8.7,0.9-11,2.4
			c-2.3,1.5-3.1,3.6-3.1,6.5v52.2c0,2.9,0.9,4.9,3.1,6.3c2.2,1.4,5.8,2.1,11,2.1h67.9c4.9,0,8.8-0.7,10.9-2.1c2-1.5,3.1-3.4,3.1-6.3
			V1843c0-2.9-1.2-5-3.1-6.5c-2.1-1.5-6-2.4-10.9-2.4H2281.8z"/>
		<path class="st1" d="M2424.5,1928.3v-23.4h102.5c5.3,0,9.2-1.1,11.4-2.4c2.5-1.6,3.6-4.3,3.6-7.4v-12.2c0-3.8-1.1-5.9-3.6-7.7
			c-2.3-1.3-6.1-2.4-11.4-2.4h-68.1c-22.8,0-34.3-8.5-34.3-25.2v-15.1c0-15.1,11.3-22.9,33.9-22.9h102.7v23.6h-103.5
			c-3.2,0-5.8,0-7.2,0.9c-1.2,0.6-1.9,1.8-1.9,3.3v6.8c0,2.2,0.7,3.4,1.9,4c1.4,1.1,4,1.6,7.6,1.6h68.9c7.3,0,13.2,0.7,18.3,2
			c5,1.3,9,3.6,12.1,5.9c3.2,2.9,5.2,6.1,6.7,9.9c1.4,4.5,2.2,9,2.2,14.1v14.2c0,5.4-0.9,9.9-2.2,13.8c-1.4,4-3.4,7.6-6.7,10.3
			c-3.1,2.7-7,4.7-12.1,6.1c-5,1.3-11,2.2-18.3,2.2H2424.5z"/>
		<path class="st1" d="M2526.8,1929.2h-102.3c-0.4,0-1-0.7-1-0.9v-23.4c0-0.6,0.5-1.3,1-1.3h102.5c5.1,0,8.6-0.7,10.8-2.1
			c2.3-1.5,3.2-3.4,3.2-6.3v-12.2c0-2.9-0.9-5.2-3.2-6.7c-2.3-1.6-5.7-2.2-10.8-2.2h-68.1c-23.6,0-35.3-9-35.3-26.5v-15.1
			c0-15.8,11.7-23.8,34.8-23.8h102.7c0,0,1.1,0.4,1.1,0.9v23.6c0,0.4-0.4,0.9-0.4,0.9h-104.2c-4,0-5.8,0.6-6.6,0.9
			c-0.9,0.5-1.4,1.3-1.4,2.4v6.8c0,1.6,0.4,2.9,1.5,3.4c0.6,0.4,2.5,0.9,6.8,0.9h68.9c7.3,0,13.4,0.7,18.5,2.3
			c5.4,1.3,9.6,3.3,12.5,6.5c3.1,2.7,5.8,6.1,7.1,10.3c1.4,4.2,2.1,9,2.1,14.1v14.2c0,5.4-0.6,10.4-2.1,14.4c-1.4,4-4,7.4-7.1,10.3
			c-3,2.7-7.1,5-12.5,6.5C2540.2,1928.5,2534.1,1929.2,2526.8,1929.2"/>
		<path class="st1" d="M2676.9,1928.3v-118.7h106.8c7.1,0,13.1,0.7,18.1,2c4.9,1.6,9.1,3.6,12.1,6.5c3.2,2.7,5.2,5.9,6.7,9.9
			c1.5,4.3,2.1,8.5,2.1,13.7v54.2c0,5.4-0.6,9.7-2.1,13.8c-1.4,4-3.5,7.6-6.7,10.3c-3,2.7-7.1,4.7-12.1,6.1c-5,1.3-11,2.2-18.1,2.2
			H2676.9z M2700.1,1904.9h83.6c5.1,0,9.1-1.1,11.4-2.4c2.5-1.6,3.6-4.3,3.6-7.4v-52.6c0-2.9-1.1-5.6-3.6-7
			c-2.3-1.5-6.3-2.3-11.4-2.3h-83.6V1904.9z"/>
		<path class="st1" d="M2783.7,1929.2h-106.8c-0.7,0-1.3-0.7-1.3-0.9v-118.7c0-0.5,0.6-0.9,1.3-0.9h106.8c7.1,0,13.2,0.7,18.5,2
			c4.8,1.6,9.5,3.8,12.5,6.3c3,3.1,5.3,6.5,6.8,11c1.3,3.8,2.1,8.5,2.1,13.7v54.2c0,5.4-0.7,10.4-2.1,14.4c-1.5,4-3.9,7.4-6.8,10.3
			c-3,2.7-7.7,5-12.5,6.5C2796.9,1928.5,2790.8,1929.2,2783.7,1929.2 M2701.1,1903.6h82.6c5,0,8.6-0.7,10.6-2.1
			c2.3-1.5,3.3-3.4,3.3-6.3v-52.6c0-2.5-1-4.7-3.3-6.1c-2-1.5-5.6-2.4-10.6-2.4h-82.6V1903.6z"/>
		<polygon class="st1" points="2859.1,1928.3 2859.1,1809.6 3004.6,1809.6 3004.6,1833.2 2882.5,1833.2 2882.5,1848.5 
			2982.2,1848.5 2982.2,1870.3 2882.5,1870.3 2882.5,1904.9 3005.1,1904.9 3005.1,1928.3 		"/>
		<path class="st1" d="M3005.1,1929.2h-146c-0.6,0-1.2-0.7-1.2-0.9v-118.7c0-0.5,0.6-0.9,1.2-0.9h145.5c0.7,0,1,0.4,1,0.9v23.6
			c0,0.4-0.3,0.9-1,0.9h-121v13.5h98.9c0.4,0,1,0.4,1,0.9v21.8c0,0.4-0.6,0.9-1,0.9h-98.9v32.4h121.5c0,0,1,0.7,1,1.3v23.4
			c0,0.2-0.5,0.9-0.5,0.9"/>
		<polygon class="st1" points="3165.7,1928.3 3165.7,1833.2 3104.2,1833.2 3104.2,1809.6 3250.2,1809.6 3250.2,1833.2 
			3188.9,1833.2 3188.9,1928.3 		"/>
		<path class="st1" d="M3188.9,1929.2h-23.1c0,0-1.3-0.7-1.3-0.9v-94.2h-60.2c0,0-1.1-0.5-1.1-0.9v-23.6c0-0.5,0.5-0.9,0.5-0.9
			h146.5c0.7,0,1.2,0.4,1.2,0.9v23.6c0,0.4-0.4,0.9-1.2,0.9h-60.3v94.2c0,0.2-0.5,0.9-0.5,0.9"/>
		<path class="st1" d="M3278.8,1928.3v-118.7h106.8c7.1,0,13.2,0.7,18.3,2c5.1,1.6,9.2,3.6,12.3,6.5c3,2.7,5.2,5.9,6.5,9.9
			c1.3,4.3,2.1,8.5,2.1,13.7v12.1c0,5-0.8,9.7-2.1,13.7c-1.3,4.1-3.5,7.6-6.5,9.9c-3.2,2.9-7.2,5-12.3,6.7c-5,1.2-11.2,1.8-18.3,1.8
			h-17.8l60.6,42.5h-41.7l-55.9-42.5h-28.6v42.5H3278.8z M3302.2,1865.1h83.6c5.4,0,9-0.9,11.3-2.5c2.6-1.4,3.8-4.1,3.8-7.6v-12.4
			c0-2.9-1.2-5.6-3.8-7c-2.3-1.5-5.9-2.3-11.3-2.3h-83.6V1865.1z"/>
		<path class="st1" d="M3428.3,1929.2h-41.7c0,0-0.5,0-0.9-0.3l-55.6-41.8H3303v41.2c0,0.2-0.3,0.9-0.8,0.9h-23.4
			c0,0-1.3-0.7-1.3-0.9v-118.7c0-0.5,0.5-0.9,0.5-0.9h107.5c7.1,0,13.5,0.7,18.8,2c5,1.6,9.2,3.8,12.4,6.3c3.1,3.1,5.6,6.5,6.9,11
			c1.2,3.8,2,8.5,2,13.7v12.1c0,5-0.8,10.1-2,13.8c-1.3,4.5-3.8,7.9-6.9,11c-3.2,2.5-7.7,4.9-12.4,6.1c-5.1,1.4-11.7,2.3-18.8,2.3
			H3371l58,40c0.4,0.7,0.4,0.7,0.4,1.5c0,0.4-0.5,0.7-0.5,0.7 M3303,1863.8h82.7c5.1,0,8.7-0.5,11-2.3c2.1-1.1,3.1-3.8,3.1-6.5V1843
			c0-2.9-1-5-3.1-6.5c-2.2-1.5-5.9-2.4-11-2.4H3303V1863.8z"/>
		<path class="st1" d="M3456,1928.3V1850c0-13,3.9-22.5,11.4-29.7c7.4-7.1,18.8-10.6,34.1-10.6h54.6c15.3,0,27,3.6,34.7,10.6
			c7.4,7.2,11.2,16.7,11.2,29.7v78.3h-23.1v-38.2h-99.7v38.2H3456z M3479.1,1868.5h99.7V1850c0-2.9-0.5-5.2-1-7.4
			c-0.8-1.8-2.1-3.8-3.9-5.2c-1.7-1.4-4.1-2.7-6.8-3.3c-3.1-0.9-6.8-0.9-11-0.9h-54.4c-4.2,0-8.1,0-11,0.9c-2.8,0.6-5,1.8-6.8,3.3
			c-1.8,1.4-3.1,3.4-3.8,5.2c-0.8,2.2-1.1,4.5-1.1,7.4V1868.5z"/>
		<path class="st1" d="M3601.9,1929.2h-23.1c-0.8,0-1.3-0.7-1.3-0.9v-36.9h-97.3v36.9c0,0.2-0.6,0.9-0.6,0.9H3456
			c0,0-1.3-0.7-1.3-0.9V1850c0-13.5,4.3-23.4,11.9-30.6c7.7-7,19.6-10.6,34.9-10.6h54.6c15.8,0,27.5,3.6,35.3,10.6
			c7.7,7.2,11.5,17.1,11.5,30.6v78.3C3602.9,1928.5,3602.4,1929.2,3601.9,1929.2 M3480.2,1867.6h97.3V1850c0-2.5-0.3-5.2-1.1-7.4
			c-0.4-1.6-1.4-3.3-3.2-4.5c-1.8-1.6-3.6-2.2-6.4-2.9c-2.8-0.6-6.6-1.1-10.7-1.1h-54.4c-4.2,0-7.8,0.6-10.6,1.1
			c-2.5,0.7-4.9,1.3-6.4,2.9c-1.5,1.3-2.8,2.9-3.3,4.5c-0.8,2.2-1.2,4.8-1.2,7.4V1867.6z"/>
		<path class="st1" d="M3638.7,1928.3v-108.2c0-3.8,1-6.9,3.1-8.7c2.2-2.3,4.8-3.1,7.6-3.1c1.6,0,2.9,0.2,4.1,0.4
			c1.4,0.4,2.8,1.3,4,2l103.7,84.1v-85.2h23.1V1918c0,3.8-0.8,6.7-3.1,8.6c-2.1,2-4.9,3.4-7.9,3.4c-1,0-2.3-0.4-3.8-0.9
			c-1.4-0.5-2.5-0.9-4.1-2.2l-103.4-83.7v85H3638.7z"/>
		<path class="st1" d="M3773.4,1931c-1,0-2.5-0.4-4.1-0.9c-1.5,0-2.7-1.3-4-2.4l-102.2-82.3v82.8c0,0.2-0.5,0.9-0.5,0.9h-23.9
			c-0.5,0-1-0.7-1-0.9v-108.2c0-4,1-7.2,3.5-9.7c3.6-3.3,7.6-4.2,12.7-2.5c1.5,0.5,2.8,1.1,4.1,2.2l102.2,82.5v-82.9
			c0-0.5,0.5-0.9,1-0.9h23.1c0,0,1.3,0.4,1.3,0.9V1918c0,4.1-1.3,7-3.8,9.7C3779.5,1930.1,3776.7,1931,3773.4,1931"/>
		<path class="st1" d="M3821,1928.3v-23.4h102.7c5,0,8.9-1.1,11.4-2.4c2.2-1.6,3.5-4.3,3.5-7.4v-12.2c0-3.8-1.3-5.9-3.5-7.7
			c-2.5-1.3-6.4-2.4-11.4-2.4h-68.3c-22.7,0-34.4-8.5-34.4-25.2v-15.1c0-15.1,11.4-22.9,34-22.9h102.7v23.6h-103.4
			c-3.5,0-5.9,0-7.1,0.9c-1.5,0.6-2,1.8-2,3.3v6.8c0,2.2,0.5,3.4,2,4c1.3,1.1,3.6,1.6,7.4,1.6h69.1c6.8,0,13,0.7,18,2
			c5.1,1.3,8.9,3.6,12,5.9c3.3,2.9,5.3,6.1,6.7,9.9c1.4,4.5,2.2,9,2.2,14.1v14.2c0,5.4-0.8,9.9-2.2,13.8c-1.4,4-3.3,7.6-6.7,10.3
			c-3.1,2.7-6.8,4.7-12,6.1c-5,1.3-11.2,2.2-18,2.2H3821z"/>
		<path class="st1" d="M3923.7,1929.2H3821c-0.4,0-1-0.7-1-0.9v-23.4c0-0.6,0.5-1.3,1-1.3h102.7c4.8,0,8.6-0.7,10.9-2.1
			c1.8-1.5,3.1-3.4,3.1-6.3v-12.2c0-2.9-1.3-5.2-3.1-6.7c-2.3-1.6-6.1-2.2-10.9-2.2h-68.3c-23.5,0-35.4-9-35.4-26.5v-15.1
			c0-15.8,11.7-23.8,35-23.8h102.7c0,0,1.2,0.4,1.2,0.9v23.6c0,0.4-0.7,0.9-0.7,0.9h-104c-4.3,0-5.9,0.6-6.7,0.9
			c-1,0.5-1.4,1.3-1.4,2.4v6.8c0,1.6,0.4,2.9,1.4,3.4c0.8,0.4,2.3,0.9,6.9,0.9h69.1c6.8,0,13.2,0.7,18.3,2.3
			c5.1,1.3,9.5,3.3,12.4,6.5c3.3,2.7,5.6,6.1,6.8,10.3c1.5,4.2,2.3,9,2.3,14.1v14.2c0,5.4-0.8,10.4-2.3,14.4
			c-1.3,4-3.5,7.4-6.8,10.3c-3,2.7-7.4,5-12.4,6.5C3936.9,1928.5,3930.5,1929.2,3923.7,1929.2"/>
		<path class="st1" d="M3998.6,1927.8v-118.1h106.8c7.4,0,13.6,0.7,18.6,2c5.1,1.6,8.6,3.6,12,6.5c2.8,2.7,5,5.9,6.6,9.9
			c1.6,4.3,2.1,8.5,2.1,13.7v15.7c0,5.2-0.4,9.7-2.1,13.9c-1.5,4-3.8,7.4-6.6,9.9c-3.3,2.9-6.8,5-12,6.1c-5,1.6-11.2,2.3-18.6,2.3
			h-83.6v38.2H3998.6z M4021.7,1867.6h83.9c5.3,0,8.9-0.5,11.5-2.2c2.4-1.6,3.4-4.3,3.4-7.7V1843c0-3.3-1-5.9-3.4-7.4
			c-2.6-1.5-6.2-2.3-11.5-2.3h-83.9V1867.6z"/>
		<path class="st1" d="M4021.7,1929.2h-23.1c0,0-1-0.7-1-0.9v-118.7c0-0.5,0.5-0.9,0.5-0.9h107.2c7.4,0,13.8,0.7,18.8,2
			c5.1,1.6,9.2,3.8,12.2,6.3c3.5,3.1,5.6,6.5,7.1,11c1.3,3.8,2.3,8.5,2.3,13.7v15.7c0,5.2-1,10.1-2.3,14.2
			c-1.5,4.2-3.6,7.6-7.1,10.3c-3.1,3.3-7.1,5.2-12.2,6.7c-5,1.3-11.4,1.8-18.8,1.8H4023v38C4023,1928.5,4022.5,1929.2,4021.7,1929.2
			 M4023,1866.7h82.6c5,0,8.6-0.7,10.9-2.2c2.1-1.3,3-3.4,3-6.9v-15.1c0-2.5-1-4.7-3.2-6.1c-2.1-1.5-5.7-2.4-10.7-2.4H4023V1866.7z"
			/>
		<path class="st1" d="M4213.7,1928.3c-7.4,0-13.4-0.9-18.4-2.2c-5-1.4-9-3.4-12-6.1c-3-2.7-5.2-6.3-6.8-10.3c-1.6-4.1-2-8.5-2-13.8
			v-54.2c0-5.2,0.4-9.4,2-13.7c1.5-4,3.8-7.2,6.8-9.9c3-2.9,7-4.9,12-6.5c4.9-1.3,11-2,18.4-2h67.7c7.2,0,13.3,0.7,18.2,2
			c5.1,1.6,8.9,3.6,12.2,6.5c3.1,2.7,5.1,5.9,6.7,9.9c1.2,4.3,2,8.5,2,13.7v54.2c0,5.4-0.8,9.7-2,13.8c-1.6,4-3.6,7.6-6.7,10.3
			c-3.3,2.7-7.1,4.7-12.2,6.1c-4.9,1.3-11,2.2-18.2,2.2H4213.7z M4198.7,1895.2c0,3.1,1,5.8,3.2,7.4c2.5,1.3,6.1,2.4,11.4,2.4h68.1
			c5,0,8.8-1.1,11.4-2.4c2.3-1.6,3.8-4.3,3.8-7.4v-52.6c0-2.9-1.4-5.6-3.8-7c-2.6-1.5-6.4-2.3-11.4-2.3h-68.1
			c-5.3,0-8.9,0.9-11.4,2.3c-2.2,1.5-3.2,4.1-3.2,7V1895.2z"/>
		<path class="st1" d="M4281.4,1929.2h-67.7c-7.4,0-13.8-0.7-18.5-2.2c-5.4-1.4-9.4-3.8-12.8-6.5c-3-2.9-5.2-6.3-6.8-10.3
			c-1.4-4-2.1-9-2.1-14.4v-54.2c0-5.2,0.7-9.9,2.1-13.7c1.5-4.5,3.8-7.9,6.8-11c3.4-2.5,7.4-4.7,12.8-6.3c4.8-1.2,11.2-2,18.5-2
			h67.7c7.2,0,13.3,0.7,18.6,2c5.2,1.6,9.4,3.8,12.3,6.3c3.4,3.1,5.6,6.5,7.2,11c1.5,3.8,2.2,8.5,2.2,13.7v54.2
			c0,5.4-0.6,10.4-2.2,14.4c-1.6,4-3.8,7.4-7.2,10.3c-3,2.7-7.1,5-12.3,6.5C4294.7,1928.5,4288.6,1929.2,4281.4,1929.2
			 M4213.4,1834.1c-4.8,0-8.8,0.9-10.7,2.4c-2.2,1.5-3.2,3.6-3.2,6.5v52.2c0,2.9,1,4.9,3.2,6.3c1.8,1.4,5.9,2.1,10.7,2.1h68.1
			c5,0,8.5-0.7,10.6-2.1c2.3-1.5,3.3-3.4,3.3-6.3V1843c0-2.9-1-5-3.3-6.5c-2.1-1.5-5.9-2.4-10.6-2.4H4213.4z"/>
		<path class="st1" d="M4357.1,1928.3v-118.7h106.7c7.1,0,13.2,0.7,18.1,2c5.3,1.6,9.1,3.6,12.2,6.5c3.3,2.7,5.3,5.9,6.6,9.9
			c1.5,4.3,2.3,8.5,2.3,13.7v12.1c0,5-0.8,9.7-2.3,13.7c-1.3,4.1-3.2,7.6-6.6,9.9c-3.1,2.9-6.8,5-12.2,6.7c-4.9,1.2-11,1.8-18.1,1.8
			h-18l60.5,42.5h-41.4l-56.2-42.5h-28.5v42.5H4357.1z M4380.1,1865.1h83.9c5,0,8.8-0.9,11.4-2.5c2.3-1.4,3.6-4.1,3.6-7.6v-12.4
			c0-2.9-1.3-5.6-3.6-7c-2.6-1.5-6.4-2.3-11.4-2.3h-83.9V1865.1z"/>
		<path class="st1" d="M4506.3,1929.2h-41.4c0,0-0.5,0-0.5-0.3l-56.2-41.8h-26.9v41.2c0,0.2-0.5,0.9-1.1,0.9h-23.1
			c-0.8,0-1.2-0.7-1.2-0.9v-118.7c0-0.5,0.4-0.9,1.2-0.9h106.7c7.1,0,13.5,0.7,18.5,2c5.3,1.6,9.5,3.8,12.5,6.3
			c3.2,3.1,5.6,6.5,6.8,11c1.6,3.8,2.3,8.5,2.3,13.7v12.1c0,5-0.7,10.1-2.3,13.8c-1.2,4.5-3.6,7.9-6.8,11c-3.1,2.5-7.2,4.9-12.5,6.1
			c-5,1.4-11.4,2.3-18.5,2.3h-14.4l57.6,40c0.2,0.7,0.5,0.7,0.2,1.5C4507.2,1928.8,4506.7,1929.2,4506.3,1929.2 M4381.2,1863.8h82.8
			c4.9,0,8.6-0.5,10.6-2.3c2.3-1.1,3.3-3.8,3.3-6.5V1843c0-2.9-1-5-3.3-6.5c-2-1.5-5.8-2.4-10.6-2.4h-82.8V1863.8z"/>
		<polygon class="st1" points="4586.8,1928.3 4586.8,1833.2 4525.3,1833.2 4525.3,1809.6 4671.2,1809.6 4671.2,1833.2 4610,1833.2 
			4610,1928.3 		"/>
		<path class="st1" d="M4610,1929.2h-23.1c0,0-1.4-0.7-1.4-0.9v-94.2h-60.2c0,0-1-0.5-1-0.9v-23.6c0-0.5,0.5-0.9,0.5-0.9h146.4
			c0,0,1.1,0.4,1.1,0.9v23.6c0,0.4-0.6,0.9-0.6,0.9H4611v94.2c0,0.2-0.6,0.9-0.6,0.9"/>
		<polygon class="st1" points="4699.8,1928.3 4699.8,1809.6 4845.2,1809.6 4845.2,1833.2 4723.1,1833.2 4723.1,1848.5 
			4822.9,1848.5 4822.9,1870.3 4723.1,1870.3 4723.1,1904.9 4845.5,1904.9 4845.5,1928.3 		"/>
		<path class="st1" d="M4845.5,1929.2h-145.7c0,0-1-0.7-1-0.9v-118.7c0-0.5,0.4-0.9,0.4-0.9h146c0,0,1.3,0.4,1.3,0.9v23.6
			c0,0.4-0.7,0.9-0.7,0.9h-121.7v13.5h98.8c0,0,1.3,0.4,1.3,0.9v21.8c0,0.4-0.5,0.9-0.5,0.9h-99.6v32.4h121.4c0.8,0,1.3,0.7,1.3,1.3
			v23.4C4846.9,1928.5,4846.3,1929.2,4845.5,1929.2"/>
		<polygon class="st1" points="5110.9,524 3997.4,524 3942.9,611.9 4536.7,611.9 3966.4,1530.2 4088.3,1530.2 4658,611.9 
			5056,611.9 		"/>
		<path class="st1" d="M4095.5,1543h-152l570.4-918.5h-593.8l70.1-113.3H5134l-70.9,113.3h-398L4095.5,1543z M3989.5,1517.6h91.5
			L4651,598.9h398.1l38.9-62.1H4004.4l-38.5,62.1h593.6L3989.5,1517.6z"/>
		<g>
			<defs>
				<polygon id="SVGID_5_" points="3990.2,511.2 3920.1,624.5 4513.8,624.5 3943.5,1543 4095.5,1543 4665.1,624.5 5063.1,624.5 
					5134,511.2 				"/>
			</defs>
			<clipPath id="SVGID_6_">
				<use xlink:href="#SVGID_5_"  style="overflow:visible;"/>
			</clipPath>
			<rect x="3939.4" y="550.7" class="st2" width="1372.1" height="30.8"/>
			<rect x="3952.9" y="624.1" class="st2" width="1372.2" height="31"/>
			<rect x="3904.3" y="696.3" class="st2" width="1372.3" height="31.3"/>
			<rect x="3861.9" y="769.2" class="st2" width="1372" height="31.5"/>
			<rect x="3813.3" y="842.7" class="st2" width="1372.3" height="31.2"/>
			<rect x="3764.3" y="915.6" class="st2" width="1372.1" height="31.1"/>
			<rect x="3714.3" y="987.5" class="st2" width="1372" height="31"/>
			<rect x="3671" y="1060.4" class="st2" width="1372" height="31"/>
			<rect x="3632.2" y="1132.8" class="st2" width="1372" height="31.2"/>
			<rect x="3583.1" y="1206.1" class="st2" width="1371.7" height="31"/>
			<rect x="3535.7" y="1278.5" class="st2" width="1372.1" height="31.3"/>
			<rect x="3494.8" y="1350.9" class="st2" width="1372.1" height="31.1"/>
			<rect x="3468.2" y="1424.8" class="st2" width="1372.3" height="31.3"/>
		</g>
		<path class="st1" d="M1601.3,627c5.8-2.2,22.5-5.8,51.9-5.8h925.1l69-110.9H1628.6c-7,0-71.8,2.3-110.7,71.8
			c-0.9,1.1-8.4,12.8-20.5,32.4c-474.3,754.5-498.5,792.6-500.8,805.1c-5.8,31.3,0.5,64.5,17.5,89c15,21.2,35.9,33,58.8,33h925.4
			l357.4-571.3l0.4-0.9c2-4,11.6-24.9,1.8-45c-5.4-11.5-18.4-25-48.2-25h-615.5l-58.9,115.2h571.5l-273.1,416.8h-793.3
			c-4-1.1-9.6-3.4-10.3-4.9c-0.8-1.6-0.7-9.5,7.6-25.2C1171.5,1340.1,1582,659.1,1601.3,627"/>
		<path class="st1" d="M3844.8,509.2l-66.8,112h-773.9c0,0-83.9-2.5-107.6,32.6c-23.1,35.3-115.6,188.3-115.6,188.3
			s-50.1,60.5,56.3,58.5c106.4-2,610.1,0,610.1,0s44.5-1.4,69.1,27.5c22.1,25.8,29.7,70.4-13,136.1c-45,69.9-44.5,69.5-261.3,419.7
			c0,0-26.7,57.5-130.9,57.5h-904.6l78.9-114.7h807.7c0,0,52,7.2,96.7-59.2c44.5-67.3,193.5-312.8,193.5-312.8s22.4-41.4-37.1-41.4
			h-688.8c0,0-101.6,3.1-69.1-60.9c25.1-49.9,20.7-49,233.9-384.6c0,0,39.1-56.5,132.7-57.6C3048.8,509.2,3844.8,509.2,3844.8,509.2
			"/>
		<g>
			<defs>
				<polygon id="SVGID_7_" points="2940.1,268.5 5273.9,268.5 5293.6,237 2959.7,237 				"/>
			</defs>
			<use xlink:href="#SVGID_7_"  style="overflow:visible;fill:#757273;"/>
			<clipPath id="SVGID_8_">
				<use xlink:href="#SVGID_7_"  style="overflow:visible;"/>
			</clipPath>
			<rect x="2940.1" y="237" class="st3" width="2353.5" height="31.5"/>
		</g>
		<g>
			<defs>
				<polygon id="SVGID_9_" points="2890.4,348.3 5223.6,348.3 5244.5,315.5 2910.9,315.5 				"/>
			</defs>
			<use xlink:href="#SVGID_9_"  style="overflow:visible;fill:#757273;"/>
			<clipPath id="SVGID_10_">
				<use xlink:href="#SVGID_9_"  style="overflow:visible;"/>
			</clipPath>
			<rect x="2890.4" y="315.5" class="st4" width="2354.1" height="32.8"/>
		</g>
		<g>
			<defs>
				<polygon id="SVGID_11_" points="3106,2 3087.4,31.7 5422.3,31.7 5441,2 				"/>
			</defs>
			<use xlink:href="#SVGID_11_"  style="overflow:visible;fill:#757273;"/>
			<clipPath id="SVGID_12_">
				<use xlink:href="#SVGID_11_"  style="overflow:visible;"/>
			</clipPath>
			<rect x="3087.4" y="2" class="st5" width="2353.6" height="29.7"/>
		</g>
		<g>
			<defs>
				<polygon id="SVGID_13_" points="3037.7,111.7 5372,111.7 5393.2,78.3 3058.4,78.3 				"/>
			</defs>
			<use xlink:href="#SVGID_13_"  style="overflow:visible;fill:#757273;"/>
			<clipPath id="SVGID_14_">
				<use xlink:href="#SVGID_13_"  style="overflow:visible;"/>
			</clipPath>
			<rect x="3037.7" y="78.3" class="st6" width="2355.5" height="33.3"/>
		</g>
		<g>
			<defs>
				<polygon id="SVGID_15_" points="2988.8,190 5323,190 5342.6,158.7 3008.5,158.7 				"/>
			</defs>
			<use xlink:href="#SVGID_15_"  style="overflow:visible;fill:#757273;"/>
			<clipPath id="SVGID_16_">
				<use xlink:href="#SVGID_15_"  style="overflow:visible;"/>
			</clipPath>
			<rect x="2988.8" y="158.7" class="st7" width="2353.8" height="31.4"/>
		</g>
	</g>
</g>
</svg>
